<svg width="281" height="226" viewBox="0 0 281 226" fill="none" xmlns="http://www.w3.org/2000/svg">
  <g clip-path="url(#clip0_6_2114)">
    <g opacity="0.6" clip-path="url(#clip1_6_2114)">
      <path
        d="M20.5 29.2344C20.5 15.9795 31.2452 5.23438 44.5 5.23438H238.5C251.755 5.23438 262.5 15.9795 262.5 29.2344V164.234C262.5 177.489 251.755 188.234 238.5 188.234H44.5C31.2452 188.234 20.5 177.489 20.5 164.234V29.2344Z"
        fill="#131313" fill-opacity="0.89" />
    </g>
    <g clip-path="url(#clip2_6_2114)">
      <path
        d="M0 46.2344C0 32.9795 10.7452 22.2344 24 22.2344H256C269.255 22.2344 280 32.9795 280 46.2344V209.234C280 222.489 269.255 233.234 256 233.234H24C10.7452 233.234 0 222.489 0 209.234V46.2344Z"
        fill="#131313" />
      <g clip-path="url(#clip3_6_2114)">
        <path
          d="M30.8267 49.9216C30.6822 49.4793 30.4917 49.0829 30.2551 48.7325C30.023 48.3778 29.7449 48.0756 29.4208 47.8259C29.1011 47.5763 28.7376 47.3858 28.3303 47.2544C27.9229 47.123 27.4762 47.0573 26.9901 47.0573C26.1929 47.0573 25.4681 47.2631 24.8155 47.6748C24.1629 48.0865 23.6439 48.6931 23.2585 49.4946C22.8731 50.2961 22.6804 51.2793 22.6804 52.4444C22.6804 53.6094 22.8753 54.5926 23.2651 55.3941C23.6549 56.1956 24.1826 56.8022 24.8484 57.2139C25.5141 57.6256 26.263 57.8314 27.0952 57.8314C27.866 57.8314 28.5449 57.6672 29.1317 57.3387C29.723 57.0059 30.1829 56.5372 30.5114 55.9328C30.8442 55.324 31.0107 54.6079 31.0107 53.7846L31.5099 53.8897H27.4631V52.4444H32.5874V53.8897C32.5874 54.9977 32.3509 55.9613 31.8778 56.7803C31.4092 57.5993 30.761 58.2344 29.9332 58.6855C29.1098 59.1322 28.1638 59.3556 27.0952 59.3556C25.9039 59.3556 24.8571 59.0753 23.9549 58.5147C23.0571 57.9541 22.3563 57.157 21.8526 56.1233C21.3533 55.0897 21.1037 53.8634 21.1037 52.4444C21.1037 51.3801 21.246 50.4231 21.5307 49.5734C21.8198 48.7194 22.2271 47.9924 22.7527 47.3923C23.2782 46.7923 23.9002 46.3324 24.6184 46.0127C25.3367 45.693 26.1272 45.5331 26.9901 45.5331C27.6996 45.5331 28.3609 45.6404 28.9741 45.855C29.5916 46.0653 30.1413 46.3653 30.623 46.7551C31.1092 47.1405 31.5143 47.6026 31.8384 48.1413C32.1625 48.6756 32.3859 49.2691 32.5085 49.9216H30.8267ZM34.6165 59.1716V49.0807H36.1143V50.6049H36.2195C36.4034 50.1056 36.7363 49.7005 37.218 49.3895C37.6998 49.0785 38.2429 48.9231 38.8473 48.9231C38.9612 48.9231 39.1035 48.9252 39.2743 48.9296C39.4451 48.934 39.5743 48.9406 39.6619 48.9493V50.526C39.6094 50.5129 39.4889 50.4932 39.3006 50.4669C39.1166 50.4362 38.9217 50.4209 38.7159 50.4209C38.2254 50.4209 37.7874 50.5238 37.402 50.7297C37.0209 50.9312 36.7187 51.2115 36.4954 51.5706C36.2764 51.9254 36.1669 52.3305 36.1669 52.786V59.1716H34.6165ZM44.741 59.3819C43.83 59.3819 43.0307 59.1651 42.3431 58.7315C41.6598 58.2979 41.1255 57.6913 40.7401 56.9117C40.359 56.1321 40.1685 55.2211 40.1685 54.1787C40.1685 53.1276 40.359 52.21 40.7401 51.4261C41.1255 50.6421 41.6598 50.0333 42.3431 49.5997C43.0307 49.1661 43.83 48.9493 44.741 48.9493C45.652 48.9493 46.4491 49.1661 47.1323 49.5997C47.8199 50.0333 48.3543 50.6421 48.7353 51.4261C49.1207 52.21 49.3134 53.1276 49.3134 54.1787C49.3134 55.2211 49.1207 56.1321 48.7353 56.9117C48.3543 57.6913 47.8199 58.2979 47.1323 58.7315C46.4491 59.1651 45.652 59.3819 44.741 59.3819ZM44.741 57.9891C45.433 57.9891 46.0023 57.8117 46.4491 57.457C46.8958 57.1022 47.2265 56.6358 47.4411 56.0576C47.6557 55.4795 47.763 54.8532 47.763 54.1787C47.763 53.5043 47.6557 52.8758 47.4411 52.2933C47.2265 51.7108 46.8958 51.2399 46.4491 50.8808C46.0023 50.5217 45.433 50.3421 44.741 50.3421C44.049 50.3421 43.4796 50.5217 43.0329 50.8808C42.5861 51.2399 42.2555 51.7108 42.0409 52.2933C41.8263 52.8758 41.719 53.5043 41.719 54.1787C41.719 54.8532 41.8263 55.4795 42.0409 56.0576C42.2555 56.6358 42.5861 57.1022 43.0329 57.457C43.4796 57.8117 44.049 57.9891 44.741 57.9891ZM53.072 59.1716L49.9974 49.0807H51.6267L53.8078 56.8066H53.9129L56.0677 49.0807H57.7233L59.8518 56.7803H59.9569L62.138 49.0807H63.7673L60.6927 59.1716H59.1686L56.9612 51.4195H56.8035L54.5961 59.1716H53.072ZM69.6544 49.0807V50.3946H64.425V49.0807H69.6544ZM65.9491 46.6631H67.4996V56.281C67.4996 56.719 67.5631 57.0475 67.6901 57.2664C67.8215 57.4811 67.9879 57.6256 68.1894 57.7C68.3952 57.7701 68.612 57.8052 68.8398 57.8052C69.0106 57.8052 69.1507 57.7964 69.2602 57.7789C69.3697 57.757 69.4573 57.7395 69.523 57.7263L69.8383 59.1191C69.7332 59.1585 69.5865 59.1979 69.3982 59.2373C69.2099 59.2811 68.9712 59.303 68.6821 59.303C68.2441 59.303 67.8149 59.2089 67.3945 59.0205C66.9784 58.8322 66.6324 58.5453 66.3565 58.1599C66.0849 57.7745 65.9491 57.2883 65.9491 56.7015V46.6631ZM73.2027 53.1013V59.1716H71.6523V45.7171H73.2027V50.6574H73.3341C73.5706 50.1362 73.9254 49.7224 74.3984 49.4158C74.8758 49.1048 75.5108 48.9493 76.3036 48.9493C76.9912 48.9493 77.5934 49.0873 78.1102 49.3632C78.627 49.6348 79.0278 50.053 79.3125 50.618C79.6015 51.1786 79.7461 51.8925 79.7461 52.7597V59.1716H78.1956V52.8648C78.1956 52.0633 77.9876 51.4436 77.5715 51.0056C77.1598 50.5633 76.5883 50.3421 75.8568 50.3421C75.3488 50.3421 74.8933 50.4494 74.4904 50.664C74.0918 50.8786 73.7765 51.1918 73.5443 51.6034C73.3166 52.0151 73.2027 52.5144 73.2027 53.1013Z"
          fill="#DDFF00" />
      </g>
      <path
        d="M0.5 54.1929C0.5 41.2142 11.0213 30.6929 24 30.6929H256C268.979 30.6929 279.5 41.2142 279.5 54.1929V217.193C279.5 230.172 268.979 240.693 256 240.693H24C11.0213 240.693 0.5 230.172 0.5 217.193V54.1929Z"
        stroke="white" stroke-opacity="0.06" />
    </g>
  </g>
  <defs>
    <clipPath id="clip0_6_2114">
      <rect width="281" height="225" fill="white" transform="translate(0 0.234375)" />
    </clipPath>
    <clipPath id="clip1_6_2114">
      <rect width="251" height="195" fill="white" transform="translate(20.5 1.23438)" />
    </clipPath>
    <clipPath id="clip2_6_2114">
      <path
        d="M0 46.2344C0 32.9795 10.7452 22.2344 24 22.2344H256C269.255 22.2344 280 32.9795 280 46.2344V209.234C280 222.489 269.255 233.234 256 233.234H24C10.7452 233.234 0 222.489 0 209.234V46.2344Z"
        fill="white" />
    </clipPath>
    <clipPath id="clip3_6_2114">
      <rect width="61.68" height="21.13" fill="white" transform="translate(20 42.2344)" />
    </clipPath>
  </defs>
</svg>