<?xml version="1.0" encoding="UTF-8"?>
<!DOCTYPE svg PUBLIC "-//W3C//DTD SVG 1.1//EN" "http://www.w3.org/Graphics/SVG/1.1/DTD/svg11.dtd">
<svg xmlns="http://www.w3.org/2000/svg" version="1.1" width="500px" height="500px" style="shape-rendering:geometricPrecision; text-rendering:geometricPrecision; image-rendering:optimizeQuality; fill-rule:evenodd; clip-rule:evenodd" xmlns:xlink="http://www.w3.org/1999/xlink">
<g><path style="opacity:0.004" fill="#fefffe" d="M 386.5,3.5 C 387.833,4.16667 387.833,4.16667 386.5,3.5 Z"/></g>
<g><path style="opacity:0.004" fill="#fefffe" d="M 62.5,4.5 C 63.8333,5.16667 63.8333,5.16667 62.5,4.5 Z"/></g>
<g><path style="opacity:0.004" fill="#fefffe" d="M 298.5,8.5 C 299.833,9.16667 299.833,9.16667 298.5,8.5 Z"/></g>
<g><path style="opacity:0.004" fill="#fefffe" d="M 286.5,12.5 C 287.833,13.1667 287.833,13.1667 286.5,12.5 Z"/></g>
<g><path style="opacity:0.004" fill="#fefffe" d="M 50.5,18.5 C 51.8333,19.1667 51.8333,19.1667 50.5,18.5 Z"/></g>
<g><path style="opacity:0.004" fill="#fefffe" d="M 264.5,24.5 C 265.833,25.1667 265.833,25.1667 264.5,24.5 Z"/></g>
<g><path style="opacity:0.004" fill="#fefffe" d="M 198.5,37.5 C 199.833,38.1667 199.833,38.1667 198.5,37.5 Z"/></g>
<g><path style="opacity:0.004" fill="#fefffe" d="M 188.5,46.5 C 189.833,47.1667 189.833,47.1667 188.5,46.5 Z"/></g>
<g><path style="opacity:0.004" fill="#fefffe" d="M 25.5,47.5 C 26.8333,48.1667 26.8333,48.1667 25.5,47.5 Z"/></g>
<g><path style="opacity:0.004" fill="#fefffe" d="M 219.5,47.5 C 220.833,48.1667 220.833,48.1667 219.5,47.5 Z"/></g>
<g><path style="opacity:0.004" fill="#fefffe" d="M 400.5,53.5 C 401.833,54.1667 401.833,54.1667 400.5,53.5 Z"/></g>
<g><path style="opacity:0.004" fill="#fefffe" d="M 390.5,56.5 C 391.833,57.1667 391.833,57.1667 390.5,56.5 Z"/></g>
<g><path style="opacity:0.004" fill="#fefffe" d="M 105.5,57.5 C 106.833,58.1667 106.833,58.1667 105.5,57.5 Z"/></g>
<g><path style="opacity:0.004" fill="#fefffe" d="M 200.5,57.5 C 201.833,58.1667 201.833,58.1667 200.5,57.5 Z"/></g>
<g><path style="opacity:0.004" fill="#fefffe" d="M 220.5,57.5 C 221.833,58.1667 221.833,58.1667 220.5,57.5 Z"/></g>
<g><path style="opacity:0.004" fill="#fefffe" d="M 450.5,66.5 C 451.833,67.1667 451.833,67.1667 450.5,66.5 Z"/></g>
<g><path style="opacity:0.004" fill="#fefffe" d="M 365.5,69.5 C 366.833,70.1667 366.833,70.1667 365.5,69.5 Z"/></g>
<g><path style="opacity:0.004" fill="#fefffe" d="M 397.5,70.5 C 398.833,71.1667 398.833,71.1667 397.5,70.5 Z"/></g>
<g><path style="opacity:0.004" fill="#fefffe" d="M 190.5,73.5 C 191.833,74.1667 191.833,74.1667 190.5,73.5 Z"/></g>
<g><path style="opacity:0.263" fill="#a7a7a7" d="M 171.5,74.5 C 175.833,74.5 180.167,74.5 184.5,74.5C 184.737,75.791 184.404,76.791 183.5,77.5C 179.768,75.8693 175.768,74.8693 171.5,74.5 Z"/></g>
<g><path style="opacity:1" fill="#191818" d="M 171.5,74.5 C 175.768,74.8693 179.768,75.8693 183.5,77.5C 152.738,131.365 121.738,185.032 90.5,238.5C 90.5674,237.041 90.2341,235.708 89.5,234.5C 103.563,204.707 117.897,175.04 132.5,145.5C 133.404,144.791 133.737,143.791 133.5,142.5C 135.588,140.664 136.921,138.331 137.5,135.5C 140.008,131.818 142.008,127.818 143.5,123.5C 144.537,122.07 145.204,120.403 145.5,118.5C 148.955,113.254 151.622,107.587 153.5,101.5C 157.926,92.9815 162.092,84.3149 166,75.5C 167.699,74.5939 169.533,74.2606 171.5,74.5 Z"/></g>
<g><path style="opacity:0.004" fill="#fefffe" d="M 261.5,78.5 C 262.833,79.1667 262.833,79.1667 261.5,78.5 Z"/></g>
<g><path style="opacity:0.004" fill="#fefffe" d="M 325.5,81.5 C 326.833,82.1667 326.833,82.1667 325.5,81.5 Z"/></g>
<g><path style="opacity:0.004" fill="#fefffe" d="M 1.5,85.5 C 2.83333,86.1667 2.83333,86.1667 1.5,85.5 Z"/></g>
<g><path style="opacity:0.004" fill="#fefffe" d="M 338.5,95.5 C 339.833,96.1667 339.833,96.1667 338.5,95.5 Z"/></g>
<g><path style="opacity:0.004" fill="#fefffe" d="M 11.5,96.5 C 12.8333,97.1667 12.8333,97.1667 11.5,96.5 Z"/></g>
<g><path style="opacity:0.004" fill="#fefffe" d="M 302.5,96.5 C 303.833,97.1667 303.833,97.1667 302.5,96.5 Z"/></g>
<g><path style="opacity:0.004" fill="#fefffe" d="M 381.5,96.5 C 382.833,97.1667 382.833,97.1667 381.5,96.5 Z"/></g>
<g><path style="opacity:0.999" fill="#ce241d" d="M 153.5,101.5 C 151.622,107.587 148.955,113.254 145.5,118.5C 145.723,116.658 146.057,114.825 146.5,113C 148.637,109.874 150.303,106.541 151.5,103C 136.5,102.333 121.5,102.333 106.5,103C 107.337,104.011 107.67,105.178 107.5,106.5C 106.067,105.167 104.733,103.667 103.5,102C 120.163,101.5 136.83,101.333 153.5,101.5 Z"/></g>
<g><path style="opacity:1" fill="#d72a20" d="M 396.5,112.5 C 397.092,109.873 397.425,107.206 397.5,104.5C 398.675,104.719 399.675,104.386 400.5,103.5C 371.839,102.333 343.172,102.167 314.5,103C 313.956,103.717 313.289,104.217 312.5,104.5C 312.414,103.504 312.748,102.671 313.5,102C 343.839,101.167 374.172,101.333 404.5,102.5C 402.159,106.165 399.493,109.499 396.5,112.5 Z"/></g>
<g><path style="opacity:1" fill="#f90905" d="M 145.5,118.5 C 145.204,120.403 144.537,122.07 143.5,123.5C 139.537,126.383 137.537,130.383 137.5,135.5C 136.035,136.406 135.035,137.739 134.5,139.5C 133.675,140.386 132.675,140.719 131.5,140.5C 129.147,138.14 127.147,135.473 125.5,132.5C 125.715,130.821 125.048,129.821 123.5,129.5C 123.817,126.454 122.484,124.787 119.5,124.5C 119.5,124.167 119.5,123.833 119.5,123.5C 119.737,119.684 118.071,117.351 114.5,116.5C 114.446,114.368 113.446,113.035 111.5,112.5C 109.808,110.795 108.475,108.795 107.5,106.5C 107.67,105.178 107.337,104.011 106.5,103C 121.5,102.333 136.5,102.333 151.5,103C 150.303,106.541 148.637,109.874 146.5,113C 146.057,114.825 145.723,116.658 145.5,118.5 Z"/></g>
<g><path style="opacity:1" fill="#fc0100" d="M 396.5,112.5 C 396.5,112.833 396.5,113.167 396.5,113.5C 392.167,113.167 390.167,115.167 390.5,119.5C 387.813,120.664 385.48,122.497 383.5,125C 383.957,125.414 384.291,125.914 384.5,126.5C 382.775,128.533 380.441,130.699 377.5,133C 377.957,133.414 378.291,133.914 378.5,134.5C 376.995,135.842 376.328,137.508 376.5,139.5C 375.178,139.67 374.011,139.337 373,138.5C 372.82,140.488 372.986,142.488 373.5,144.5C 372.07,144.421 370.736,144.754 369.5,145.5C 368.808,144.975 368.308,144.308 368,143.5C 367.504,145.035 367.67,146.535 368.5,148C 367.293,149.3 366.626,150.8 366.5,152.5C 365.178,152.33 364.011,152.663 363,153.5C 362.505,155.473 362.338,157.473 362.5,159.5C 362.5,159.833 362.5,160.167 362.5,160.5C 360.856,160.714 359.356,160.38 358,159.5C 357.405,160.899 357.572,162.232 358.5,163.5C 356.758,165.382 354.758,166.882 352.5,168C 353.38,169.356 353.714,170.856 353.5,172.5C 352.5,172.5 351.5,172.5 350.5,172.5C 350.5,173.5 350.5,174.5 350.5,175.5C 349.127,175.343 347.793,175.51 346.5,176C 346.957,176.414 347.291,176.914 347.5,177.5C 345.172,178.724 342.839,178.724 340.5,177.5C 340.167,177.833 339.833,178.167 339.5,178.5C 340.728,180.321 342.394,181.321 344.5,181.5C 344.5,182.5 344.5,183.5 344.5,184.5C 342.533,184.261 340.699,184.594 339,185.5C 338.326,188.26 337.493,190.927 336.5,193.5C 335.127,193.343 333.793,193.51 332.5,194C 333.308,194.308 333.975,194.808 334.5,195.5C 333.603,195.669 332.603,196.002 331.5,196.5C 332.309,198.071 332.643,199.738 332.5,201.5C 332.167,202.167 331.833,202.833 331.5,203.5C 328.43,204.243 326.764,206.243 326.5,209.5C 324.801,209.34 323.134,209.506 321.5,210C 323.405,210.826 323.739,211.993 322.5,213.5C 320.833,214.833 319.167,214.833 317.5,213.5C 314.972,214.498 314.972,215.331 317.5,216C 316.732,218.369 315.565,220.535 314,222.5C 311.32,220.339 310.82,221.172 312.5,225C 308.038,230.861 304.371,237.194 301.5,244C 302.315,245.98 303.648,247.48 305.5,248.5C 306.137,251.456 306.637,254.456 307,257.5C 307.333,256.833 307.667,256.167 308,255.5C 309.307,257.192 310.807,258.525 312.5,259.5C 312.833,259.5 313.167,259.5 313.5,259.5C 315.262,260.262 316.262,261.596 316.5,263.5C 316.427,265.027 317.094,266.027 318.5,266.5C 318.738,268.404 319.738,269.738 321.5,270.5C 321.266,274.21 322.933,276.544 326.5,277.5C 326.226,281.202 327.892,283.535 331.5,284.5C 331.226,288.202 332.892,290.535 336.5,291.5C 337.167,291.5 337.5,291.833 337.5,292.5C 337.427,294.027 338.094,295.027 339.5,295.5C 339.427,297.027 340.094,298.027 341.5,298.5C 341.738,300.404 342.738,301.738 344.5,302.5C 345.291,307.417 347.624,311.417 351.5,314.5C 352.208,317.366 352.875,320.2 353.5,323C 353.167,323.333 352.833,323.667 352.5,324C 353.742,324.311 354.742,323.811 355.5,322.5C 358.227,324.58 360.894,326.58 363.5,328.5C 363.342,331.522 364.675,333.522 367.5,334.5C 367.427,336.027 368.094,337.027 369.5,337.5C 369.561,341.071 371.227,343.404 374.5,344.5C 375.167,344.5 375.5,344.833 375.5,345.5C 375.427,347.027 376.094,348.027 377.5,348.5C 377.226,352.202 378.892,354.535 382.5,355.5C 382.738,357.404 383.738,358.738 385.5,359.5C 385.427,361.027 386.094,362.027 387.5,362.5C 387.738,364.404 388.738,365.738 390.5,366.5C 390.427,368.027 391.094,369.027 392.5,369.5C 392.213,373.215 393.88,375.548 397.5,376.5C 397.213,380.215 398.88,382.548 402.5,383.5C 402.738,385.404 403.738,386.738 405.5,387.5C 405.427,389.027 406.094,390.027 407.5,390.5C 407.539,391.583 407.873,392.583 408.5,393.5C 376.797,394.818 345.13,394.818 313.5,393.5C 313.5,393.167 313.5,392.833 313.5,392.5C 313.014,390.193 313.014,388.027 313.5,386C 310.45,385.503 309.45,384.003 310.5,381.5C 309.311,380.571 307.978,380.238 306.5,380.5C 306.66,378.801 306.494,377.134 306,375.5C 305.586,375.957 305.086,376.291 304.5,376.5C 303.096,373.793 301.762,371.126 300.5,368.5C 298.678,368.169 297.011,367.502 295.5,366.5C 295.715,364.821 295.048,363.821 293.5,363.5C 293.715,361.821 293.048,360.821 291.5,360.5C 291.715,358.821 291.048,357.821 289.5,357.5C 289.715,355.821 289.048,354.821 287.5,354.5C 286.662,354.158 286.328,353.492 286.5,352.5C 285.129,346.94 282.129,342.607 277.5,339.5C 277.715,337.821 277.048,336.821 275.5,336.5C 275.715,334.821 275.048,333.821 273.5,333.5C 273.715,331.821 273.048,330.821 271.5,330.5C 271.715,328.821 271.048,327.821 269.5,327.5C 269.715,325.821 269.048,324.821 267.5,324.5C 267.715,322.821 267.048,321.821 265.5,321.5C 265.715,319.821 265.048,318.821 263.5,318.5C 263.715,316.821 263.048,315.821 261.5,315.5C 261.715,313.821 261.048,312.821 259.5,312.5C 257.923,309.95 255.923,307.95 253.5,306.5C 249.849,306.162 248.183,307.828 248.5,311.5C 247.022,311.238 245.689,311.571 244.5,312.5C 245.428,313.768 245.595,315.101 245,316.5C 240.828,320.108 237.995,325.108 236.5,331.5C 236.573,333.027 235.906,334.027 234.5,334.5C 234.719,333.325 234.386,332.325 233.5,331.5C 232.548,333.045 232.215,334.712 232.5,336.5C 231.167,336.5 229.833,336.5 228.5,336.5C 228.5,338.5 228.5,340.5 228.5,342.5C 227.325,342.281 226.325,342.614 225.5,343.5C 223.829,348.114 221.829,352.447 219.5,356.5C 217.821,356.285 216.821,356.952 216.5,358.5C 215.596,359.209 215.263,360.209 215.5,361.5C 214.178,361.67 213.011,361.337 212,360.5C 209.173,362.254 209.006,364.088 211.5,366C 210.167,366.667 208.833,367.333 207.5,368C 208.423,370.041 208.756,372.208 208.5,374.5C 206.718,375.72 204.718,376.386 202.5,376.5C 201.361,379.004 200.694,381.67 200.5,384.5C 199.167,384.5 197.833,384.5 196.5,384.5C 196.5,386.167 196.5,387.833 196.5,389.5C 193.387,389.065 192.721,390.065 194.5,392.5C 194.253,393.713 193.586,394.38 192.5,394.5C 162.165,394.667 131.832,394.5 101.5,394C 102.252,393.329 102.586,392.496 102.5,391.5C 106.936,388.652 109.936,384.652 111.5,379.5C 114.79,373.913 118.79,368.913 123.5,364.5C 125.167,363.167 126.833,361.833 128.5,360.5C 129.423,361.303 130.423,361.47 131.5,361C 130.62,359.644 130.286,358.144 130.5,356.5C 132.201,356.966 133.701,356.966 135,356.5C 135.492,355.451 135.326,354.451 134.5,353.5C 137.232,350.702 138.899,347.369 139.5,343.5C 145.978,341.12 149.645,336.453 150.5,329.5C 152.016,326.467 154.016,323.8 156.5,321.5C 159.917,319.408 162.25,316.408 163.5,312.5C 166.471,310.343 169.471,308.176 172.5,306C 172.167,305.667 171.833,305.333 171.5,305C 172.464,303.275 173.131,301.441 173.5,299.5C 177.759,297.917 180.092,294.917 180.5,290.5C 180.738,288.596 181.738,287.262 183.5,286.5C 184.721,285.972 185.887,285.305 187,284.5C 187.826,286.405 188.993,286.739 190.5,285.5C 189.833,284.5 189.167,283.5 188.5,282.5C 190.909,280.006 193.076,277.34 195,274.5C 196.122,272.593 196.955,270.593 197.5,268.5C 200.074,263.591 203.408,259.258 207.5,255.5C 213.071,252.924 216.405,248.591 217.5,242.5C 218.643,242.092 219.643,241.425 220.5,240.5C 222.289,238.39 223.622,236.056 224.5,233.5C 224.738,231.596 225.738,230.262 227.5,229.5C 229.484,229.617 231.15,228.95 232.5,227.5C 234.982,224.203 236.649,220.536 237.5,216.5C 237.328,215.508 237.662,214.842 238.5,214.5C 239.338,214.158 239.672,213.492 239.5,212.5C 221.497,210.686 203.164,209.352 184.5,208.5C 184.5,207.5 184.5,206.5 184.5,205.5C 187.626,203.84 189.293,201.174 189.5,197.5C 193.609,195.932 196.109,192.932 197,188.5C 197.333,188.833 197.667,189.167 198,189.5C 198.44,187.134 198.94,184.801 199.5,182.5C 200.5,182.5 201.5,182.5 202.5,182.5C 202.977,179.345 203.977,176.345 205.5,173.5C 206.5,173.5 207.5,173.5 208.5,173.5C 210.089,170.547 211.756,167.547 213.5,164.5C 214.452,162.955 214.785,161.288 214.5,159.5C 215.906,159.027 216.573,158.027 216.5,156.5C 217.906,156.027 218.573,155.027 218.5,153.5C 221.804,152.856 223.138,150.856 222.5,147.5C 222.733,145.938 223.4,144.605 224.5,143.5C 225.5,143.5 226.5,143.5 227.5,143.5C 228.338,143.842 228.672,144.508 228.5,145.5C 228.427,147.027 229.094,148.027 230.5,148.5C 230.427,150.027 231.094,151.027 232.5,151.5C 232.738,153.404 233.738,154.738 235.5,155.5C 235.557,156.609 235.89,157.609 236.5,158.5C 236.687,161.69 238.354,163.69 241.5,164.5C 241.738,166.404 242.738,167.738 244.5,168.5C 244.427,170.027 245.094,171.027 246.5,171.5C 246.427,173.027 247.094,174.027 248.5,174.5C 248.226,178.202 249.892,180.535 253.5,181.5C 253.427,183.027 254.094,184.027 255.5,184.5C 256.609,184.443 257.609,184.11 258.5,183.5C 259.906,183.027 260.573,182.027 260.5,180.5C 261.906,180.027 262.573,179.027 262.5,177.5C 265.773,176.404 267.439,174.071 267.5,170.5C 267.427,168.973 268.094,167.973 269.5,167.5C 270.906,167.027 271.573,166.027 271.5,164.5C 272.34,162.147 273.674,160.147 275.5,158.5C 276.906,158.027 277.573,157.027 277.5,155.5C 281.108,154.535 282.774,152.202 282.5,148.5C 283.906,148.027 284.573,147.027 284.5,145.5C 285.906,145.027 286.573,144.027 286.5,142.5C 287.906,142.027 288.573,141.027 288.5,139.5C 289.906,139.027 290.573,138.027 290.5,136.5C 291.906,136.027 292.573,135.027 292.5,133.5C 296.108,132.535 297.774,130.202 297.5,126.5C 298.906,126.027 299.573,125.027 299.5,123.5C 300.906,123.027 301.573,122.027 301.5,120.5C 308.025,118.637 311.025,114.304 310.5,107.5C 311.906,107.027 312.573,106.027 312.5,104.5C 313.289,104.217 313.956,103.717 314.5,103C 343.172,102.167 371.839,102.333 400.5,103.5C 399.675,104.386 398.675,104.719 397.5,104.5C 397.425,107.206 397.092,109.873 396.5,112.5 Z"/></g>
<g><path style="opacity:0.686" fill="#e97d79" d="M 312.5,104.5 C 312.573,106.027 311.906,107.027 310.5,107.5C 310.427,105.973 311.094,104.973 312.5,104.5 Z"/></g>
<g><path style="opacity:1" fill="#f38477" d="M 111.5,112.5 C 113.446,113.035 114.446,114.368 114.5,116.5C 113.026,115.564 112.026,114.23 111.5,112.5 Z"/></g>
<g><path style="opacity:1" fill="#e9523f" d="M 114.5,116.5 C 118.071,117.351 119.737,119.684 119.5,123.5C 117.478,121.469 115.811,119.135 114.5,116.5 Z"/></g>
<g><path style="opacity:1" fill="#ec3e2f" d="M 310.5,107.5 C 311.025,114.304 308.025,118.637 301.5,120.5C 304.117,115.886 307.117,111.553 310.5,107.5 Z"/></g>
<g><path style="opacity:0.898" fill="#f4807c" d="M 301.5,120.5 C 301.573,122.027 300.906,123.027 299.5,123.5C 299.427,121.973 300.094,120.973 301.5,120.5 Z"/></g>
<g><path style="opacity:1" fill="#f14e3b" d="M 396.5,113.5 C 389.187,124.139 381.521,134.472 373.5,144.5C 372.986,142.488 372.82,140.488 373,138.5C 374.011,139.337 375.178,139.67 376.5,139.5C 376.328,137.508 376.995,135.842 378.5,134.5C 378.291,133.914 377.957,133.414 377.5,133C 380.441,130.699 382.775,128.533 384.5,126.5C 384.291,125.914 383.957,125.414 383.5,125C 385.48,122.497 387.813,120.664 390.5,119.5C 390.167,115.167 392.167,113.167 396.5,113.5 Z"/></g>
<g><path style="opacity:0.929" fill="#ed7f6e" d="M 299.5,123.5 C 299.573,125.027 298.906,126.027 297.5,126.5C 297.427,124.973 298.094,123.973 299.5,123.5 Z"/></g>
<g><path style="opacity:1" fill="#eb6b59" d="M 119.5,124.5 C 122.484,124.787 123.817,126.454 123.5,129.5C 122.197,127.858 120.864,126.191 119.5,124.5 Z"/></g>
<g><path style="opacity:1" fill="#b8221d" d="M 143.5,123.5 C 142.008,127.818 140.008,131.818 137.5,135.5C 137.537,130.383 139.537,126.383 143.5,123.5 Z"/></g>
<g><path style="opacity:0.004" fill="#fefffe" d="M 104.5,129.5 C 105.833,130.167 105.833,130.167 104.5,129.5 Z"/></g>
<g><path style="opacity:1" fill="#ec856b" d="M 123.5,129.5 C 125.048,129.821 125.715,130.821 125.5,132.5C 124.599,131.71 123.932,130.71 123.5,129.5 Z"/></g>
<g><path style="opacity:1" fill="#e65343" d="M 297.5,126.5 C 297.774,130.202 296.108,132.535 292.5,133.5C 293.786,130.883 295.453,128.55 297.5,126.5 Z"/></g>
<g><path style="opacity:0.004" fill="#fefffe" d="M 189.5,135.5 C 190.833,136.167 190.833,136.167 189.5,135.5 Z"/></g>
<g><path style="opacity:0.475" fill="#fd9c97" d="M 292.5,133.5 C 292.573,135.027 291.906,136.027 290.5,136.5C 290.427,134.973 291.094,133.973 292.5,133.5 Z"/></g>
<g><path style="opacity:0.004" fill="#fefffe" d="M 264.5,138.5 C 265.833,139.167 265.833,139.167 264.5,138.5 Z"/></g>
<g><path style="opacity:0.522" fill="#f78984" d="M 290.5,136.5 C 290.573,138.027 289.906,139.027 288.5,139.5C 288.427,137.973 289.094,136.973 290.5,136.5 Z"/></g>
<g><path style="opacity:1" fill="#bb3331" d="M 137.5,135.5 C 136.921,138.331 135.588,140.664 133.5,142.5C 133.158,141.662 132.492,141.328 131.5,141.5C 131.5,141.167 131.5,140.833 131.5,140.5C 132.675,140.719 133.675,140.386 134.5,139.5C 135.035,137.739 136.035,136.406 137.5,135.5 Z"/></g>
<g><path style="opacity:0.004" fill="#fefffe" d="M 22.5,141.5 C 23.8333,142.167 23.8333,142.167 22.5,141.5 Z"/></g>
<g><path style="opacity:0.576" fill="#f48a89" d="M 288.5,139.5 C 288.573,141.027 287.906,142.027 286.5,142.5C 286.427,140.973 287.094,139.973 288.5,139.5 Z"/></g>
<g><path style="opacity:0.937" fill="#cf9a9b" d="M 227.5,143.5 C 226.5,143.5 225.5,143.5 224.5,143.5C 225.5,140.833 226.5,140.833 227.5,143.5 Z"/></g>
<g><path style="opacity:0.02" fill="#e0c5c0" d="M 131.5,141.5 C 132.492,141.328 133.158,141.662 133.5,142.5C 133.737,143.791 133.404,144.791 132.5,145.5C 132.567,144.041 132.234,142.708 131.5,141.5 Z"/></g>
<g><path style="opacity:0.631" fill="#ef7d7b" d="M 286.5,142.5 C 286.573,144.027 285.906,145.027 284.5,145.5C 284.427,143.973 285.094,142.973 286.5,142.5 Z"/></g>
<g><path style="opacity:0.584" fill="#ef867d" d="M 228.5,145.5 C 229.906,145.973 230.573,146.973 230.5,148.5C 229.094,148.027 228.427,147.027 228.5,145.5 Z"/></g>
<g><path style="opacity:0.725" fill="#e8766d" d="M 284.5,145.5 C 284.573,147.027 283.906,148.027 282.5,148.5C 282.427,146.973 283.094,145.973 284.5,145.5 Z"/></g>
<g><path style="opacity:0.004" fill="#fefffe" d="M 381.5,147.5 C 382.833,148.167 382.833,148.167 381.5,147.5 Z"/></g>
<g><path style="opacity:0.004" fill="#fefffe" d="M 127.5,148.5 C 128.833,149.167 128.833,149.167 127.5,148.5 Z"/></g>
<g><path style="opacity:0.694" fill="#ea7870" d="M 230.5,148.5 C 231.906,148.973 232.573,149.973 232.5,151.5C 231.094,151.027 230.427,150.027 230.5,148.5 Z"/></g>
<g><path style="opacity:1" fill="#e85243" d="M 222.5,147.5 C 223.138,150.856 221.804,152.856 218.5,153.5C 219.34,151.147 220.674,149.147 222.5,147.5 Z"/></g>
<g><path style="opacity:0.004" fill="#fefffe" d="M 378.5,151.5 C 379.833,152.167 379.833,152.167 378.5,151.5 Z"/></g>
<g><path style="opacity:1" fill="#ea5144" d="M 282.5,148.5 C 282.774,152.202 281.108,154.535 277.5,155.5C 278.786,152.883 280.453,150.55 282.5,148.5 Z"/></g>
<g><path style="opacity:0.796" fill="#f17c74" d="M 232.5,151.5 C 234.262,152.262 235.262,153.596 235.5,155.5C 233.738,154.738 232.738,153.404 232.5,151.5 Z"/></g>
<g><path style="opacity:1" fill="#f14f3b" d="M 373.5,144.5 C 370.564,150.041 366.897,155.041 362.5,159.5C 362.338,157.473 362.505,155.473 363,153.5C 364.011,152.663 365.178,152.33 366.5,152.5C 366.626,150.8 367.293,149.3 368.5,148C 367.67,146.535 367.504,145.035 368,143.5C 368.308,144.308 368.808,144.975 369.5,145.5C 370.736,144.754 372.07,144.421 373.5,144.5 Z"/></g>
<g><path style="opacity:0.6" fill="#f4837e" d="M 218.5,153.5 C 218.573,155.027 217.906,156.027 216.5,156.5C 216.427,154.973 217.094,153.973 218.5,153.5 Z"/></g>
<g><path style="opacity:0.859" fill="#ee917f" d="M 235.5,155.5 C 236.906,155.973 237.573,156.973 237.5,158.5C 237.167,158.5 236.833,158.5 236.5,158.5C 235.89,157.609 235.557,156.609 235.5,155.5 Z"/></g>
<g><path style="opacity:0.514" fill="#f59491" d="M 277.5,155.5 C 277.573,157.027 276.906,158.027 275.5,158.5C 275.427,156.973 276.094,155.973 277.5,155.5 Z"/></g>
<g><path style="opacity:0.569" fill="#f38785" d="M 216.5,156.5 C 216.573,158.027 215.906,159.027 214.5,159.5C 214.427,157.973 215.094,156.973 216.5,156.5 Z"/></g>
<g><path style="opacity:0.004" fill="#fefffe" d="M 48.5,160.5 C 49.8333,161.167 49.8333,161.167 48.5,160.5 Z"/></g>
<g><path style="opacity:1" fill="#e84838" d="M 236.5,158.5 C 236.833,158.5 237.167,158.5 237.5,158.5C 239.326,160.147 240.66,162.147 241.5,164.5C 238.354,163.69 236.687,161.69 236.5,158.5 Z"/></g>
<g><path style="opacity:0.973" fill="#ee7b71" d="M 241.5,164.5 C 243.262,165.262 244.262,166.596 244.5,168.5C 242.738,167.738 241.738,166.404 241.5,164.5 Z"/></g>
<g><path style="opacity:0.922" fill="#e67572" d="M 271.5,164.5 C 271.573,166.027 270.906,167.027 269.5,167.5C 269.427,165.973 270.094,164.973 271.5,164.5 Z"/></g>
<g><path style="opacity:0.004" fill="#fefffe" d="M 188.5,167.5 C 189.833,168.167 189.833,168.167 188.5,167.5 Z"/></g>
<g><path style="opacity:1" fill="#e93c2c" d="M 214.5,159.5 C 214.785,161.288 214.452,162.955 213.5,164.5C 211.756,167.547 210.089,170.547 208.5,173.5C 207.5,173.5 206.5,173.5 205.5,173.5C 208.004,168.485 211.004,163.819 214.5,159.5 Z"/></g>
<g><path style="opacity:1" fill="#f35341" d="M 362.5,160.5 C 359.488,164.538 356.488,168.538 353.5,172.5C 353.714,170.856 353.38,169.356 352.5,168C 354.758,166.882 356.758,165.382 358.5,163.5C 357.572,162.232 357.405,160.899 358,159.5C 359.356,160.38 360.856,160.714 362.5,160.5 Z"/></g>
<g><path style="opacity:0.004" fill="#fefffe" d="M 264.5,168.5 C 265.833,169.167 265.833,169.167 264.5,168.5 Z"/></g>
<g><path style="opacity:0.557" fill="#f38780" d="M 244.5,168.5 C 245.906,168.973 246.573,169.973 246.5,171.5C 245.094,171.027 244.427,170.027 244.5,168.5 Z"/></g>
<g><path style="opacity:0.651" fill="#f7837e" d="M 246.5,171.5 C 247.906,171.973 248.573,172.973 248.5,174.5C 247.094,174.027 246.427,173.027 246.5,171.5 Z"/></g>
<g><path style="opacity:1" fill="#e7594c" d="M 267.5,170.5 C 267.439,174.071 265.773,176.404 262.5,177.5C 263.433,174.63 265.1,172.296 267.5,170.5 Z"/></g>
<g><path style="opacity:1" fill="#e85642" d="M 248.5,174.5 C 250.547,176.55 252.214,178.883 253.5,181.5C 249.892,180.535 248.226,178.202 248.5,174.5 Z"/></g>
<g><path style="opacity:1" fill="#f43a29" d="M 353.5,172.5 C 350.975,176.896 347.975,180.896 344.5,184.5C 344.5,183.5 344.5,182.5 344.5,181.5C 342.394,181.321 340.728,180.321 339.5,178.5C 339.833,178.167 340.167,177.833 340.5,177.5C 342.839,178.724 345.172,178.724 347.5,177.5C 347.291,176.914 346.957,176.414 346.5,176C 347.793,175.51 349.127,175.343 350.5,175.5C 350.5,174.5 350.5,173.5 350.5,172.5C 351.5,172.5 352.5,172.5 353.5,172.5 Z"/></g>
<g><path style="opacity:0.557" fill="#fa8885" d="M 262.5,177.5 C 262.573,179.027 261.906,180.027 260.5,180.5C 260.427,178.973 261.094,177.973 262.5,177.5 Z"/></g>
<g><path style="opacity:1" fill="#e84836" d="M 205.5,173.5 C 203.977,176.345 202.977,179.345 202.5,182.5C 201.5,182.5 200.5,182.5 199.5,182.5C 200.759,178.975 202.759,175.975 205.5,173.5 Z"/></g>
<g><path style="opacity:0.882" fill="#ee7974" d="M 253.5,181.5 C 254.906,181.973 255.573,182.973 255.5,184.5C 254.094,184.027 253.427,183.027 253.5,181.5 Z"/></g>
<g><path style="opacity:0.612" fill="#ed8577" d="M 260.5,180.5 C 260.573,182.027 259.906,183.027 258.5,183.5C 258.427,181.973 259.094,180.973 260.5,180.5 Z"/></g>
<g><path style="opacity:1" fill="#f34e39" d="M 344.5,184.5 C 341.235,190.701 337.235,196.368 332.5,201.5C 332.643,199.738 332.309,198.071 331.5,196.5C 332.603,196.002 333.603,195.669 334.5,195.5C 333.975,194.808 333.308,194.308 332.5,194C 333.793,193.51 335.127,193.343 336.5,193.5C 337.493,190.927 338.326,188.26 339,185.5C 340.699,184.594 342.533,184.261 344.5,184.5 Z"/></g>
<g><path style="opacity:0.643" fill="#ee7a6d" d="M 195.5,188.5 C 195.573,190.027 194.906,191.027 193.5,191.5C 193.427,189.973 194.094,188.973 195.5,188.5 Z"/></g>
<g><path style="opacity:1" fill="#ec3927" d="M 199.5,182.5 C 198.94,184.801 198.44,187.134 198,189.5C 197.667,189.167 197.333,188.833 197,188.5C 196.109,192.932 193.609,195.932 189.5,197.5C 190.34,195.147 191.674,193.147 193.5,191.5C 194.906,191.027 195.573,190.027 195.5,188.5C 196.34,186.147 197.674,184.147 199.5,182.5 Z"/></g>
<g><path style="opacity:0.004" fill="#fefffe" d="M 177.5,192.5 C 178.833,193.167 178.833,193.167 177.5,192.5 Z"/></g>
<g><path style="opacity:0.004" fill="#fefffe" d="M 23.5,193.5 C 24.8333,194.167 24.8333,194.167 23.5,193.5 Z"/></g>
<g><path style="opacity:0.004" fill="#fefffe" d="M 367.5,199.5 C 368.833,200.167 368.833,200.167 367.5,199.5 Z"/></g>
<g><path style="opacity:1" fill="#e34d3d" d="M 189.5,197.5 C 189.293,201.174 187.626,203.84 184.5,205.5C 185.669,202.489 187.336,199.822 189.5,197.5 Z"/></g>
<g><path style="opacity:0.004" fill="#fefffe" d="M 479.5,202.5 C 480.833,203.167 480.833,203.167 479.5,202.5 Z"/></g>
<g><path style="opacity:1" fill="#e96b5d" d="M 331.5,203.5 C 330.299,205.909 328.633,207.909 326.5,209.5C 326.764,206.243 328.43,204.243 331.5,203.5 Z"/></g>
<g><path style="opacity:1" fill="#e53a2e" d="M 184.5,205.5 C 184.5,206.5 184.5,207.5 184.5,208.5C 203.164,209.352 221.497,210.686 239.5,212.5C 236.833,212.5 234.167,212.5 231.5,212.5C 214.762,212.497 198.095,211.497 181.5,209.5C 182.035,207.739 183.035,206.406 184.5,205.5 Z"/></g>
<g><path style="opacity:0.439" fill="#ff9ca1" d="M 231.5,212.5 C 234.167,212.5 236.833,212.5 239.5,212.5C 239.672,213.492 239.338,214.158 238.5,214.5C 236.167,213.833 233.833,213.167 231.5,212.5 Z"/></g>
<g><path style="opacity:1" fill="#f14d3a" d="M 326.5,209.5 C 319.634,220.546 312.134,231.213 304,241.5C 303.4,244.095 303.9,246.429 305.5,248.5C 303.648,247.48 302.315,245.98 301.5,244C 304.371,237.194 308.038,230.861 312.5,225C 310.82,221.172 311.32,220.339 314,222.5C 315.565,220.535 316.732,218.369 317.5,216C 314.972,215.331 314.972,214.498 317.5,213.5C 319.167,214.833 320.833,214.833 322.5,213.5C 323.739,211.993 323.405,210.826 321.5,210C 323.134,209.506 324.801,209.34 326.5,209.5 Z"/></g>
<g><path style="opacity:0.004" fill="#fefffe" d="M 156.5,216.5 C 157.833,217.167 157.833,217.167 156.5,216.5 Z"/></g>
<g><path style="opacity:1" fill="#ec3325" d="M 237.5,216.5 C 236.649,220.536 234.982,224.203 232.5,227.5C 231.15,228.95 229.484,229.617 227.5,229.5C 230.074,224.591 233.408,220.258 237.5,216.5 Z"/></g>
<g><path style="opacity:0.004" fill="#fefffe" d="M 414.5,234.5 C 415.833,235.167 415.833,235.167 414.5,234.5 Z"/></g>
<g><path style="opacity:1" fill="#4c4b4c" d="M 89.5,234.5 C 90.2341,235.708 90.5674,237.041 90.5,238.5C 87.8899,243.767 84.8899,248.767 81.5,253.5C 81.1667,253.5 80.8333,253.5 80.5,253.5C 83.2635,246.976 86.2635,240.643 89.5,234.5 Z"/></g>
<g><path style="opacity:1" fill="#e14c3d" d="M 224.5,233.5 C 223.622,236.056 222.289,238.39 220.5,240.5C 219.643,241.425 218.643,242.092 217.5,242.5C 219.111,238.949 221.444,235.949 224.5,233.5 Z"/></g>
<g><path style="opacity:1" fill="#e83a2a" d="M 217.5,242.5 C 216.405,248.591 213.071,252.924 207.5,255.5C 210.074,250.591 213.408,246.258 217.5,242.5 Z"/></g>
<g><path style="opacity:0.004" fill="#fefffe" d="M 198.5,251.5 C 199.833,252.167 199.833,252.167 198.5,251.5 Z"/></g>
<g><path style="opacity:0.753" fill="#a0a0a0" d="M 80.5,253.5 C 80.8333,253.5 81.1667,253.5 81.5,253.5C 79.9932,257.845 77.8265,261.845 75,265.5C 75.9996,261.164 77.8329,257.164 80.5,253.5 Z"/></g>
<g><path style="opacity:1" fill="#e93829" d="M 305.5,248.5 C 307.975,250.77 309.975,253.437 311.5,256.5C 311.557,257.609 311.89,258.609 312.5,259.5C 310.807,258.525 309.307,257.192 308,255.5C 307.667,256.167 307.333,256.833 307,257.5C 306.637,254.456 306.137,251.456 305.5,248.5 Z"/></g>
<g><path style="opacity:0.902" fill="#ec827b" d="M 311.5,256.5 C 312.906,256.973 313.573,257.973 313.5,259.5C 313.167,259.5 312.833,259.5 312.5,259.5C 311.89,258.609 311.557,257.609 311.5,256.5 Z"/></g>
<g><path style="opacity:0.004" fill="#fefffe" d="M 393.5,261.5 C 394.833,262.167 394.833,262.167 393.5,261.5 Z"/></g>
<g><path style="opacity:0.678" fill="#eb7b77" d="M 316.5,263.5 C 317.906,263.973 318.573,264.973 318.5,266.5C 317.094,266.027 316.427,265.027 316.5,263.5 Z"/></g>
<g><path style="opacity:1" fill="#222222" d="M 65.5,429.5 C 64.6618,429.158 64.3284,428.492 64.5,427.5C 88.4403,373.617 112.94,319.95 138,266.5C 142.413,265.368 146.913,265.201 151.5,266C 123.186,320.798 94.5198,375.298 65.5,429.5 Z"/></g>
<g><path style="opacity:0.835" fill="#ef7b77" d="M 318.5,266.5 C 320.262,267.262 321.262,268.596 321.5,270.5C 319.738,269.738 318.738,268.404 318.5,266.5 Z"/></g>
<g><path style="opacity:1" fill="#e6473c" d="M 321.5,270.5 C 323.547,272.55 325.214,274.883 326.5,277.5C 322.933,276.544 321.266,274.21 321.5,270.5 Z"/></g>
<g><path style="opacity:1" fill="#e93527" d="M 197.5,268.5 C 196.955,270.593 196.122,272.593 195,274.5C 193.076,277.34 190.909,280.006 188.5,282.5C 189.167,283.5 189.833,284.5 190.5,285.5C 188.993,286.739 187.826,286.405 187,284.5C 185.887,285.305 184.721,285.972 183.5,286.5C 187.686,280.129 192.353,274.129 197.5,268.5 Z"/></g>
<g><path style="opacity:1" fill="#e95045" d="M 326.5,277.5 C 328.547,279.55 330.214,281.883 331.5,284.5C 327.892,283.535 326.226,281.202 326.5,277.5 Z"/></g>
<g><path style="opacity:0.004" fill="#fefffe" d="M 337.5,284.5 C 338.833,285.167 338.833,285.167 337.5,284.5 Z"/></g>
<g><path style="opacity:1" fill="#e44e3c" d="M 331.5,284.5 C 333.547,286.55 335.214,288.883 336.5,291.5C 332.892,290.535 331.226,288.202 331.5,284.5 Z"/></g>
<g><path style="opacity:0.004" fill="#fefffe" d="M 62.5,289.5 C 63.8333,290.167 63.8333,290.167 62.5,289.5 Z"/></g>
<g><path style="opacity:0.776" fill="#f59c96" d="M 337.5,292.5 C 338.906,292.973 339.573,293.973 339.5,295.5C 338.094,295.027 337.427,294.027 337.5,292.5 Z"/></g>
<g><path style="opacity:0.894" fill="#eb8079" d="M 339.5,295.5 C 340.906,295.973 341.573,296.973 341.5,298.5C 340.094,298.027 339.427,297.027 339.5,295.5 Z"/></g>
<g><path style="opacity:1" fill="#e54035" d="M 180.5,290.5 C 180.092,294.917 177.759,297.917 173.5,299.5C 175.458,296.208 177.791,293.208 180.5,290.5 Z"/></g>
<g><path style="opacity:0.004" fill="#fefffe" d="M 91.5,299.5 C 92.8333,300.167 92.8333,300.167 91.5,299.5 Z"/></g>
<g><path style="opacity:0.957" fill="#ed7c75" d="M 341.5,298.5 C 343.262,299.262 344.262,300.596 344.5,302.5C 342.738,301.738 341.738,300.404 341.5,298.5 Z"/></g>
<g><path style="opacity:1" fill="#ea3d2b" d="M 173.5,299.5 C 173.131,301.441 172.464,303.275 171.5,305C 171.833,305.333 172.167,305.667 172.5,306C 169.471,308.176 166.471,310.343 163.5,312.5C 166.074,307.591 169.408,303.258 173.5,299.5 Z"/></g>
<g><path style="opacity:0.922" fill="#ec7570" d="M 349.5,309.5 C 350.906,309.973 351.573,310.973 351.5,312.5C 350.094,312.027 349.427,311.027 349.5,309.5 Z"/></g>
<g><path style="opacity:1" fill="#ec887b" d="M 259.5,312.5 C 261.048,312.821 261.715,313.821 261.5,315.5C 260.599,314.71 259.932,313.71 259.5,312.5 Z"/></g>
<g><path style="opacity:1" fill="#e04f44" d="M 163.5,312.5 C 162.25,316.408 159.917,319.408 156.5,321.5C 158.458,318.208 160.791,315.208 163.5,312.5 Z"/></g>
<g><path style="opacity:1" fill="#ed8678" d="M 261.5,315.5 C 263.048,315.821 263.715,316.821 263.5,318.5C 262.599,317.71 261.932,316.71 261.5,315.5 Z"/></g>
<g><path style="opacity:0.996" fill="#f28a78" d="M 263.5,318.5 C 265.048,318.821 265.715,319.821 265.5,321.5C 264.599,320.71 263.932,319.71 263.5,318.5 Z"/></g>
<g><path style="opacity:0.749" fill="#e67a71" d="M 354.5,316.5 C 355.906,316.973 356.573,317.973 356.5,319.5C 355.094,319.027 354.427,318.027 354.5,316.5 Z"/></g>
<g><path style="opacity:0.004" fill="#fefffe" d="M 421.5,318.5 C 422.833,319.167 422.833,319.167 421.5,318.5 Z"/></g>
<g><path style="opacity:0.004" fill="#fefffe" d="M 458.5,318.5 C 459.833,319.167 459.833,319.167 458.5,318.5 Z"/></g>
<g><path style="opacity:1" fill="#ee3121" d="M 344.5,302.5 C 346.547,304.55 348.214,306.883 349.5,309.5C 349.427,311.027 350.094,312.027 351.5,312.5C 353.262,313.262 354.262,314.596 354.5,316.5C 354.427,318.027 355.094,319.027 356.5,319.5C 359.185,322.19 361.518,325.19 363.5,328.5C 360.894,326.58 358.227,324.58 355.5,322.5C 354.742,323.811 353.742,324.311 352.5,324C 352.833,323.667 353.167,323.333 353.5,323C 352.875,320.2 352.208,317.366 351.5,314.5C 347.624,311.417 345.291,307.417 344.5,302.5 Z"/></g>
<g><path style="opacity:0.988" fill="#ec8a79" d="M 265.5,321.5 C 267.048,321.821 267.715,322.821 267.5,324.5C 266.599,323.71 265.932,322.71 265.5,321.5 Z"/></g>
<g><path style="opacity:0.004" fill="#fefffe" d="M 90.5,324.5 C 91.8333,325.167 91.8333,325.167 90.5,324.5 Z"/></g>
<g><path style="opacity:0.988" fill="#f1877b" d="M 267.5,324.5 C 269.048,324.821 269.715,325.821 269.5,327.5C 268.599,326.71 267.932,325.71 267.5,324.5 Z"/></g>
<g><path style="opacity:1" fill="#ed4a38" d="M 253.5,306.5 C 248.191,315.13 242.525,323.464 236.5,331.5C 237.995,325.108 240.828,320.108 245,316.5C 245.595,315.101 245.428,313.768 244.5,312.5C 245.689,311.571 247.022,311.238 248.5,311.5C 248.183,307.828 249.849,306.162 253.5,306.5 Z"/></g>
<g><path style="opacity:0.988" fill="#ea887f" d="M 269.5,327.5 C 271.048,327.821 271.715,328.821 271.5,330.5C 270.599,329.71 269.932,328.71 269.5,327.5 Z"/></g>
<g><path style="opacity:0.004" fill="#fefffe" d="M 252.5,329.5 C 253.833,330.167 253.833,330.167 252.5,329.5 Z"/></g>
<g><path style="opacity:0.984" fill="#ec8775" d="M 271.5,330.5 C 273.048,330.821 273.715,331.821 273.5,333.5C 272.599,332.71 271.932,331.71 271.5,330.5 Z"/></g>
<g><path style="opacity:0.969" fill="#ee7062" d="M 363.5,328.5 C 365.218,330.223 366.551,332.223 367.5,334.5C 364.675,333.522 363.342,331.522 363.5,328.5 Z"/></g>
<g><path style="opacity:0.984" fill="#f08880" d="M 273.5,333.5 C 275.048,333.821 275.715,334.821 275.5,336.5C 274.599,335.71 273.932,334.71 273.5,333.5 Z"/></g>
<g><path style="opacity:0.918" fill="#f37e76" d="M 367.5,334.5 C 368.906,334.973 369.573,335.973 369.5,337.5C 368.094,337.027 367.427,336.027 367.5,334.5 Z"/></g>
<g><path style="opacity:0.984" fill="#f18879" d="M 275.5,336.5 C 277.048,336.821 277.715,337.821 277.5,339.5C 276.599,338.71 275.932,337.71 275.5,336.5 Z"/></g>
<g><path style="opacity:1" fill="#e83424" d="M 150.5,329.5 C 149.645,336.453 145.978,341.12 139.5,343.5C 142.411,338.254 146.078,333.587 150.5,329.5 Z"/></g>
<g><path style="opacity:0.004" fill="#fefffe" d="M 44.5,339.5 C 45.8333,340.167 45.8333,340.167 44.5,339.5 Z"/></g>
<g><path style="opacity:1" fill="#e75242" d="M 369.5,337.5 C 371.9,339.296 373.567,341.63 374.5,344.5C 371.227,343.404 369.561,341.071 369.5,337.5 Z"/></g>
<g><path style="opacity:1" fill="#f05340" d="M 234.5,334.5 C 228.996,344.181 222.996,353.515 216.5,362.5C 216.5,361.167 216.5,359.833 216.5,358.5C 216.821,356.952 217.821,356.285 219.5,356.5C 221.829,352.447 223.829,348.114 225.5,343.5C 226.325,342.614 227.325,342.281 228.5,342.5C 228.5,340.5 228.5,338.5 228.5,336.5C 229.833,336.5 231.167,336.5 232.5,336.5C 232.215,334.712 232.548,333.045 233.5,331.5C 234.386,332.325 234.719,333.325 234.5,334.5 Z"/></g>
<g><path style="opacity:1" fill="#ed6353" d="M 277.5,339.5 C 282.129,342.607 285.129,346.94 286.5,352.5C 283.143,348.465 280.143,344.132 277.5,339.5 Z"/></g>
<g><path style="opacity:0.867" fill="#f38484" d="M 375.5,345.5 C 376.906,345.973 377.573,346.973 377.5,348.5C 376.094,348.027 375.427,347.027 375.5,345.5 Z"/></g>
<g><path style="opacity:1" fill="#e74d42" d="M 377.5,348.5 C 379.547,350.55 381.214,352.883 382.5,355.5C 378.892,354.535 377.226,352.202 377.5,348.5 Z"/></g>
<g><path style="opacity:1" fill="#ef271a" d="M 139.5,343.5 C 138.899,347.369 137.232,350.702 134.5,353.5C 135.326,354.451 135.492,355.451 135,356.5C 133.701,356.966 132.201,356.966 130.5,356.5C 130.286,358.144 130.62,359.644 131.5,361C 130.423,361.47 129.423,361.303 128.5,360.5C 128.833,359.167 129.167,357.833 129.5,356.5C 132.109,351.617 135.443,347.284 139.5,343.5 Z"/></g>
<g><path style="opacity:0.988" fill="#ec867c" d="M 287.5,354.5 C 289.048,354.821 289.715,355.821 289.5,357.5C 288.599,356.71 287.932,355.71 287.5,354.5 Z"/></g>
<g><path style="opacity:0.949" fill="#f08079" d="M 382.5,355.5 C 384.262,356.262 385.262,357.596 385.5,359.5C 383.738,358.738 382.738,357.404 382.5,355.5 Z"/></g>
<g><path style="opacity:0.988" fill="#f1897c" d="M 289.5,357.5 C 291.048,357.821 291.715,358.821 291.5,360.5C 290.599,359.71 289.932,358.71 289.5,357.5 Z"/></g>
<g><path style="opacity:1" fill="#e15347" d="M 129.5,356.5 C 129.167,357.833 128.833,359.167 128.5,360.5C 126.833,361.833 125.167,363.167 123.5,364.5C 125.016,361.467 127.016,358.8 129.5,356.5 Z"/></g>
<g><path style="opacity:0.988" fill="#ed8a7c" d="M 291.5,360.5 C 293.048,360.821 293.715,361.821 293.5,363.5C 292.599,362.71 291.932,361.71 291.5,360.5 Z"/></g>
<g><path style="opacity:0.894" fill="#ef847e" d="M 385.5,359.5 C 386.906,359.973 387.573,360.973 387.5,362.5C 386.094,362.027 385.427,361.027 385.5,359.5 Z"/></g>
<g><path style="opacity:0.004" fill="#fefffe" d="M 56.5,361.5 C 57.8333,362.167 57.8333,362.167 56.5,361.5 Z"/></g>
<g><path style="opacity:1" fill="#f4422f" d="M 216.5,358.5 C 216.5,359.833 216.5,361.167 216.5,362.5C 214.316,366.881 211.65,370.881 208.5,374.5C 208.756,372.208 208.423,370.041 207.5,368C 208.833,367.333 210.167,366.667 211.5,366C 209.006,364.088 209.173,362.254 212,360.5C 213.011,361.337 214.178,361.67 215.5,361.5C 215.263,360.209 215.596,359.209 216.5,358.5 Z"/></g>
<g><path style="opacity:0.004" fill="#fefffe" d="M 65.5,362.5 C 66.8333,363.167 66.8333,363.167 65.5,362.5 Z"/></g>
<g><path style="opacity:0.004" fill="#fefffe" d="M 407.5,362.5 C 408.833,363.167 408.833,363.167 407.5,362.5 Z"/></g>
<g><path style="opacity:0.984" fill="#ee897c" d="M 293.5,363.5 C 295.048,363.821 295.715,364.821 295.5,366.5C 294.599,365.71 293.932,364.71 293.5,363.5 Z"/></g>
<g><path style="opacity:0.965" fill="#ee7e77" d="M 387.5,362.5 C 389.262,363.262 390.262,364.596 390.5,366.5C 388.738,365.738 387.738,364.404 387.5,362.5 Z"/></g>
<g><path style="opacity:0.682" fill="#ec8171" d="M 390.5,366.5 C 391.906,366.973 392.573,367.973 392.5,369.5C 391.094,369.027 390.427,368.027 390.5,366.5 Z"/></g>
<g><path style="opacity:1" fill="#eb4d3b" d="M 392.5,369.5 C 394.9,371.296 396.567,373.63 397.5,376.5C 393.88,375.548 392.213,373.215 392.5,369.5 Z"/></g>
<g><path style="opacity:1" fill="#ea4a3d" d="M 397.5,376.5 C 399.9,378.296 401.567,380.63 402.5,383.5C 398.88,382.548 397.213,380.215 397.5,376.5 Z"/></g>
<g><path style="opacity:0.004" fill="#fefffe" d="M 81.5,381.5 C 82.8333,382.167 82.8333,382.167 81.5,381.5 Z"/></g>
<g><path style="opacity:1" fill="#f14b39" d="M 208.5,374.5 C 204.605,381.279 200.439,387.945 196,394.5C 194.989,395.337 193.822,395.67 192.5,395.5C 192.5,395.167 192.5,394.833 192.5,394.5C 193.586,394.38 194.253,393.713 194.5,392.5C 192.721,390.065 193.387,389.065 196.5,389.5C 196.5,387.833 196.5,386.167 196.5,384.5C 197.833,384.5 199.167,384.5 200.5,384.5C 200.694,381.67 201.361,379.004 202.5,376.5C 204.718,376.386 206.718,375.72 208.5,374.5 Z"/></g>
<g><path style="opacity:0.996" fill="#ed756e" d="M 402.5,383.5 C 404.262,384.262 405.262,385.596 405.5,387.5C 403.738,386.738 402.738,385.404 402.5,383.5 Z"/></g>
<g><path style="opacity:1" fill="#eb3928" d="M 295.5,366.5 C 297.011,367.502 298.678,368.169 300.5,368.5C 301.762,371.126 303.096,373.793 304.5,376.5C 305.086,376.291 305.586,375.957 306,375.5C 306.494,377.134 306.66,378.801 306.5,380.5C 307.978,380.238 309.311,380.571 310.5,381.5C 309.45,384.003 310.45,385.503 313.5,386C 313.014,388.027 313.014,390.193 313.5,392.5C 307.019,384.219 301.019,375.552 295.5,366.5 Z"/></g>
<g><path style="opacity:1" fill="#e5584d" d="M 111.5,379.5 C 109.936,384.652 106.936,388.652 102.5,391.5C 105.016,387.134 108.016,383.134 111.5,379.5 Z"/></g>
<g><path style="opacity:0.957" fill="#e6716c" d="M 405.5,387.5 C 406.906,387.973 407.573,388.973 407.5,390.5C 406.094,390.027 405.427,389.027 405.5,387.5 Z"/></g>
<g><path style="opacity:1" fill="#d21c18" d="M 102.5,391.5 C 102.586,392.496 102.252,393.329 101.5,394C 131.832,394.5 162.165,394.667 192.5,394.5C 192.5,394.833 192.5,395.167 192.5,395.5C 161.493,395.833 130.493,395.5 99.5,394.5C 100.188,393.145 101.188,392.145 102.5,391.5 Z"/></g>
<g><path style="opacity:1" fill="#d2201a" d="M 407.5,390.5 C 409.339,391.508 410.672,393.008 411.5,395C 379.167,395.667 346.833,395.667 314.5,395C 313.944,394.617 313.611,394.117 313.5,393.5C 345.13,394.818 376.797,394.818 408.5,393.5C 407.873,392.583 407.539,391.583 407.5,390.5 Z"/></g>
<g><path style="opacity:0.004" fill="#fefffe" d="M 235.5,400.5 C 236.833,401.167 236.833,401.167 235.5,400.5 Z"/></g>
<g><path style="opacity:0.004" fill="#fefffe" d="M 459.5,406.5 C 460.833,407.167 460.833,407.167 459.5,406.5 Z"/></g>
<g><path style="opacity:0.004" fill="#fefffe" d="M 186.5,411.5 C 187.833,412.167 187.833,412.167 186.5,411.5 Z"/></g>
<g><path style="opacity:0.004" fill="#fefffe" d="M 172.5,421.5 C 173.833,422.167 173.833,422.167 172.5,421.5 Z"/></g>
<g><path style="opacity:1" fill="#5a5a5a" d="M 64.5,427.5 C 64.3284,428.492 64.6618,429.158 65.5,429.5C 64.3411,433.151 62.6744,436.485 60.5,439.5C 59.8333,439.5 59.5,439.167 59.5,438.5C 60.6027,434.503 62.2694,430.836 64.5,427.5 Z"/></g>
<g><path style="opacity:0.004" fill="#fefffe" d="M 465.5,436.5 C 466.833,437.167 466.833,437.167 465.5,436.5 Z"/></g>
<g><path style="opacity:0.004" fill="#fefffe" d="M 57.5,440.5 C 56.8333,439.167 56.8333,439.167 57.5,440.5 Z"/></g>
<g><path style="opacity:0.733" fill="#909090" d="M 59.5,438.5 C 59.5,439.167 59.8333,439.5 60.5,439.5C 57.4178,445.999 54.0845,452.332 50.5,458.5C 52.8268,452.511 55.1601,446.511 57.5,440.5C 58.1667,439.833 58.8333,439.167 59.5,438.5 Z"/></g>
<g><path style="opacity:0.004" fill="#fefffe" d="M 232.5,449.5 C 233.833,450.167 233.833,450.167 232.5,449.5 Z"/></g>
<g><path style="opacity:0.004" fill="#fefffe" d="M 131.5,454.5 C 132.833,455.167 132.833,455.167 131.5,454.5 Z"/></g>
<g><path style="opacity:0.035" fill="#fefffe" d="M 50.5,458.5 C 49.8333,459.167 49.8333,459.167 50.5,458.5 Z"/></g>
<g><path style="opacity:0.004" fill="#fefffe" d="M 299.5,459.5 C 300.833,460.167 300.833,460.167 299.5,459.5 Z"/></g>
<g><path style="opacity:0.004" fill="#fefffe" d="M 366.5,462.5 C 367.833,463.167 367.833,463.167 366.5,462.5 Z"/></g>
<g><path style="opacity:0.004" fill="#fefffe" d="M 54.5,465.5 C 55.8333,466.167 55.8333,466.167 54.5,465.5 Z"/></g>
<g><path style="opacity:0.004" fill="#fefffe" d="M 329.5,470.5 C 330.833,471.167 330.833,471.167 329.5,470.5 Z"/></g>
<g><path style="opacity:0.004" fill="#fefffe" d="M 150.5,488.5 C 151.833,489.167 151.833,489.167 150.5,488.5 Z"/></g>
<g><path style="opacity:0.004" fill="#fefffe" d="M 262.5,490.5 C 263.833,491.167 263.833,491.167 262.5,490.5 Z"/></g>
</svg>
